<svg width="35" height="36" viewBox="0 0 35 36" fill="none" xmlns="http://www.w3.org/2000/svg">
<g id="Exchange" clip-path="url(#clip0_261_2785)">
<path id="Vector" d="M34.6454 8.0694L21.0141 0.584314C20.8093 0.471895 20.5609 0.471895 20.3561 0.584314L15.2182 3.40547C15.1098 3.43405 15.0086 3.48852 14.9247 3.56676L6.72509 8.0694C6.50639 8.1893 6.37048 8.41894 6.37048 8.66862V17.7214C4.98727 18.154 3.71968 18.9169 2.66572 19.9711C-0.0814764 22.7181 -0.781893 26.9078 0.922819 30.3965C1.08838 30.7356 1.49773 30.8763 1.83686 30.7105C2.17625 30.5447 2.31671 30.1353 2.15115 29.7962C0.702788 26.8319 1.29799 23.2722 3.63236 20.9378C5.09221 19.4779 7.03297 18.6739 9.09737 18.6739C11.1618 18.6739 13.1025 19.4779 14.5624 20.9378C16.022 22.3974 16.826 24.3381 16.826 26.4025C16.826 28.4669 16.022 30.4077 14.5621 31.8676C12.2278 34.2019 8.66799 34.7971 5.7037 33.3488C5.36458 33.1829 4.95522 33.3237 4.78966 33.6628C4.62384 34.0022 4.7643 34.4115 5.10369 34.5771C6.37448 35.1982 7.73793 35.4999 9.0915 35.4999C11.4528 35.4997 13.7827 34.5806 15.529 32.8342C16.3299 32.0334 16.9627 31.1095 17.4105 30.1052L20.3561 31.7226C20.4587 31.7789 20.5719 31.8069 20.6851 31.8069C20.7983 31.8069 20.9118 31.7789 21.0141 31.7226L34.6454 24.2377C34.8641 24.1176 35 23.8879 35 23.6385V18.8878C35 18.5102 34.694 18.2042 34.3164 18.2042C33.9388 18.2042 33.6328 18.5102 33.6328 18.8878V23.234L21.3708 29.9671V16.5569L25.4176 14.3347V17.8573C25.4176 18.0993 25.5453 18.323 25.7533 18.4459C25.8606 18.5092 25.9808 18.5409 26.1012 18.5409C26.2145 18.5409 26.3279 18.5129 26.4308 18.4563L29.3518 16.8485C29.5702 16.7283 29.7056 16.499 29.7056 16.2498V11.98L33.6328 9.82378V13.4193C33.6328 13.7969 33.9388 14.1029 34.3164 14.1029C34.694 14.1029 35 13.7969 35 13.4193V8.66862C35 8.41921 34.8641 8.1893 34.6454 8.0694ZM20.6851 1.96325L32.8961 8.66862L29.0442 10.7838L16.8332 4.07839L20.6851 1.96325ZM20.6851 15.3737L8.47413 8.66862L12.4673 6.47577L24.6785 13.1809L20.6851 15.3737ZM26.0986 12.4011L13.8876 5.69605L15.4129 4.85838L27.6241 11.5635L26.0986 12.4011ZM15.529 19.9711C13.811 18.2531 11.5268 17.307 9.09737 17.307C8.63782 17.307 8.18387 17.3409 7.73766 17.4074V9.82378L20.0039 16.5593V29.9695L17.8749 28.8005C18.0845 28.0287 18.1929 27.2239 18.1929 26.4025C18.1929 23.9731 17.2468 21.6889 15.529 19.9711ZM28.3387 15.8458L26.7848 16.7011V13.5841L28.3387 12.7309V15.8458Z" fill="white"/>
<path id="Vector_2" d="M34.3164 15.4668C34.1367 15.4668 33.9602 15.54 33.8331 15.6671C33.706 15.7942 33.6328 15.9704 33.6328 16.1504C33.6328 16.3301 33.706 16.5063 33.8331 16.6334C33.9602 16.7608 34.1367 16.8337 34.3164 16.8337C34.4961 16.8337 34.6726 16.7608 34.7997 16.6334C34.9268 16.5063 35 16.3301 35 16.1504C35 15.9704 34.9268 15.7942 34.7997 15.6671C34.6726 15.54 34.4961 15.4668 34.3164 15.4668Z" fill="#F04E23"/>
<path id="Vector_3" d="M6.79863 27.0862C6.97353 27.0862 7.1487 27.0195 7.28195 26.8862C7.54898 26.6192 7.54898 26.1863 7.28195 25.9193L6.80851 25.4456H10.8487C11.8287 25.4456 12.626 26.2429 12.626 27.2229C12.626 28.2029 11.8287 29.0003 10.8487 29.0003H8.45474C8.07716 29.0003 7.77115 29.3063 7.77115 29.6839C7.77115 30.0612 8.07716 30.3672 8.45474 30.3672H10.8487C12.5825 30.3672 13.9932 28.9568 13.9932 27.2229C13.9932 25.4891 12.5825 24.0787 10.8487 24.0787H6.80851L7.28195 23.605C7.54898 23.3379 7.54898 22.9051 7.28195 22.6381C7.01519 22.3713 6.58234 22.3713 6.31531 22.6381L4.67468 24.2787C4.40792 24.5457 4.40792 24.9786 4.67468 25.2456L6.31531 26.886C6.44882 27.0195 6.62372 27.0862 6.79863 27.0862Z" fill="#F04E23"/>
<path id="Vector_4" d="M3.14886 33.0356C2.95447 33.0356 2.7614 32.9528 2.62656 32.7923L2.62522 32.7907C2.38222 32.5018 2.41961 32.0708 2.70853 31.8278C2.99746 31.5846 3.42871 31.622 3.67171 31.9109C3.91444 32.2001 3.87785 32.6319 3.58893 32.8749C3.46049 32.9827 3.30427 33.0356 3.14886 33.0356Z" fill="#F04E23"/>
</g>
<defs>
<clipPath id="clip0_261_2785">
<rect width="35" height="35" fill="white" transform="translate(0 0.5)"/>
</clipPath>
</defs>
</svg>
