<svg width="35" height="36" viewBox="0 0 35 36" fill="none" xmlns="http://www.w3.org/2000/svg">
<g id="Payment security" clip-path="url(#clip0_261_2766)">
<g id="Group">
<g id="Group_2">
<path id="Vector" d="M33.1064 0.5H7.40947C7.12633 0.5 6.89678 0.729551 6.89678 1.0127C6.89678 1.29584 7.12633 1.52539 7.40947 1.52539H33.1064C33.5852 1.52539 33.9746 1.91483 33.9746 2.39355V15.6922H29.5087C29.2255 15.6922 28.996 15.9217 28.996 16.2049C28.996 16.488 29.2255 16.7176 29.5087 16.7176H33.9746V18.454H25.3521C25.1305 18.2418 24.8632 18.0736 24.5604 17.9692L20.9308 16.7176H27.1161C27.3993 16.7176 27.6288 16.488 27.6288 16.2049C27.6288 15.9217 27.3993 15.6922 27.1161 15.6922H1.02539V2.39355C1.02539 1.91483 1.41483 1.52539 1.89355 1.52539H5.01689C5.30004 1.52539 5.52959 1.29584 5.52959 1.0127C5.52959 0.729551 5.30004 0.5 5.01689 0.5H1.89355C0.849434 0.5 0 1.34943 0 2.39355V21.729C0 22.7731 0.849434 23.6226 1.89355 23.6226H8.97702V27.7194C8.97702 29.7631 9.9979 31.6514 11.7078 32.7706L14.5204 34.6117C15.4084 35.1928 16.4387 35.5 17.5 35.5C18.5613 35.5 19.5916 35.1928 20.4795 34.6116L23.2922 32.7705C25.0021 31.6513 26.0229 29.763 26.0229 27.7193V23.6226H33.1064C34.1506 23.6226 35 22.7731 35 21.729V2.39355C35 1.34943 34.1506 0.5 33.1064 0.5ZM14.0692 16.7176L10.4396 17.9692C10.1367 18.0736 9.86945 18.2418 9.64783 18.454H1.02539V16.7176H14.0692ZM1.89355 22.5972C1.41483 22.5972 1.02539 22.2077 1.02539 21.729V19.4794H9.04668C9.00177 19.6536 8.97709 19.8349 8.97709 20.0206V22.5972H1.89355ZM24.9976 27.7194C24.9976 29.4159 24.1501 30.9836 22.7307 31.9126L19.918 33.7537C19.1974 34.2253 18.3613 34.4746 17.5 34.4746C16.6387 34.4746 15.8026 34.2253 15.082 33.7536L12.2693 31.9126C10.8499 30.9835 10.0024 29.4159 10.0024 27.7193V20.0206C10.0024 19.5325 10.3124 19.0977 10.7738 18.9386L16.9468 16.81C17.1251 16.7485 17.3126 16.7177 17.4999 16.7177C17.6873 16.7177 17.8747 16.7485 18.0532 16.81L24.2261 18.9386C24.6875 19.0977 24.9975 19.5325 24.9975 20.0206L24.9976 27.7194ZM33.1064 22.5972H26.023V20.0206C26.023 19.8349 25.9983 19.6536 25.9534 19.4794H33.9746V21.729C33.9746 22.2077 33.5852 22.5972 33.1064 22.5972Z" fill="white"/>
<path id="Vector_2" d="M10.002 4.46547C10.002 3.80197 9.46224 3.26221 8.79874 3.26221H3.96498C3.30148 3.26221 2.76172 3.80197 2.76172 4.46547V7.2276C2.76172 7.89109 3.30148 8.43086 3.96498 8.43086H8.79874C9.46224 8.43086 10.002 7.89109 10.002 7.2276V4.46547ZM8.97661 7.22767C8.97661 7.32576 8.89684 7.40554 8.79874 7.40554H3.96498C3.86688 7.40554 3.78711 7.32576 3.78711 7.22767V4.46547C3.78711 4.36737 3.86688 4.2876 3.96498 4.2876H8.79874C8.89684 4.2876 8.97661 4.36737 8.97661 4.46547V7.22767Z" fill="#F04E23"/>
<path id="Vector_3" d="M3.27441 12.9297C2.99127 12.9297 2.76172 13.1592 2.76172 13.4424C2.76172 13.7255 2.99127 13.9551 3.27441 13.9551H5.34604C5.62919 13.9551 5.85874 13.7255 5.85874 13.4424C5.85874 13.1592 5.62919 12.9297 5.34604 12.9297H3.27441Z" fill="white"/>
<path id="Vector_4" d="M7.41895 12.9297C7.1358 12.9297 6.90625 13.1592 6.90625 13.4424C6.90625 13.7255 7.1358 13.9551 7.41895 13.9551H9.49058C9.77372 13.9551 10.0033 13.7255 10.0033 13.4424C10.0033 13.1592 9.77372 12.9297 9.49058 12.9297H7.41895Z" fill="white"/>
<path id="Vector_5" d="M13.6332 13.9551C13.9163 13.9551 14.1458 13.7255 14.1458 13.4424C14.1458 13.1592 13.9163 12.9297 13.6332 12.9297H11.5615C11.2784 12.9297 11.0488 13.1592 11.0488 13.4424C11.0488 13.7255 11.2784 13.9551 11.5615 13.9551H13.6332Z" fill="white"/>
<path id="Vector_6" d="M17.7757 13.9551C18.0589 13.9551 18.2884 13.7255 18.2884 13.4424C18.2884 13.1592 18.0589 12.9297 17.7757 12.9297H15.7041C15.421 12.9297 15.1914 13.1592 15.1914 13.4424C15.1914 13.7255 15.421 13.9551 15.7041 13.9551H17.7757Z" fill="white"/>
<path id="Vector_7" d="M25.55 3.95264H24.1689C23.8858 3.95264 23.6562 4.18219 23.6562 4.46533C23.6562 4.74848 23.8858 4.97803 24.1689 4.97803H25.55C25.8332 4.97803 26.0627 4.74848 26.0627 4.46533C26.0627 4.18219 25.8332 3.95264 25.55 3.95264Z" fill="white"/>
<path id="Vector_8" d="M27.7846 3.28841C27.5159 3.19886 27.2257 3.34406 27.136 3.61271L25.755 7.7559C25.6654 8.02456 25.8106 8.31488 26.0793 8.40443C26.1331 8.42234 26.1877 8.43088 26.2415 8.43088C26.4561 8.43088 26.6561 8.29499 26.7278 8.0802L28.1089 3.93701C28.1983 3.66829 28.0532 3.37796 27.7846 3.28841Z" fill="white"/>
<path id="Vector_9" d="M27.7988 7.22754C27.7988 7.51068 28.0284 7.74023 28.3115 7.74023H29.6927C29.9758 7.74023 30.2054 7.51068 30.2054 7.22754C30.2054 6.94439 29.9758 6.71484 29.6927 6.71484H28.3115C28.0284 6.71484 27.7988 6.94433 27.7988 7.22754Z" fill="white"/>
<path id="Vector_10" d="M23.1406 19.6706L17.7068 17.7972C17.5723 17.7525 17.4328 17.7506 17.2876 17.799L11.8585 19.6708C11.3742 19.8387 11.0488 20.2957 11.0488 20.8081V23.7852C11.0488 24.0683 11.2784 24.2979 11.5615 24.2979C11.8447 24.2979 12.0742 24.0683 12.0742 23.7852V20.8081C12.0742 20.7323 12.1225 20.6646 12.1935 20.64L17.4999 18.8104L22.8056 20.6398C22.8774 20.6647 22.9256 20.7323 22.9256 20.8081V27.7193C22.9256 28.7145 22.4285 29.6342 21.5962 30.1791L18.8166 31.9982C18.5012 32.2048 18.153 32.3378 17.8103 32.3829C17.2511 32.4558 16.6852 32.3269 16.2166 32.02L13.4037 30.1791C12.5713 29.6341 12.0742 28.7144 12.0742 27.7192V26.1777C12.0742 25.8946 11.8447 25.665 11.5615 25.665C11.2784 25.665 11.0488 25.8946 11.0488 26.1777V27.7192C11.0488 29.0615 11.7192 30.3018 12.8421 31.037L15.6549 32.8779C16.2054 33.2385 16.8489 33.4281 17.5041 33.4281C17.6502 33.4281 17.797 33.4187 17.9433 33.3996C18.4385 33.3345 18.9348 33.1465 19.3782 32.8561L22.1578 31.037C23.2806 30.3018 23.951 29.0616 23.951 27.7192V20.8081C23.951 20.2957 23.6256 19.8387 23.1406 19.6706Z" fill="#F04E23"/>
<path id="Vector_11" d="M15.6336 28.0973C15.9715 28.4352 16.4208 28.6212 16.8985 28.6212C17.3764 28.6212 17.8256 28.4352 18.1635 28.0973L21.1717 25.0891C21.8692 24.3916 21.8692 23.2567 21.1717 22.5591C20.8338 22.2212 20.3845 22.0352 19.9067 22.0352C19.4289 22.0352 18.9796 22.2212 18.6417 22.5591L16.8985 24.3023L16.3586 23.7624C16.0207 23.4245 15.5715 23.2384 15.0937 23.2384C14.6158 23.2384 14.1666 23.4246 13.8287 23.7625C13.4908 24.1004 13.3047 24.5496 13.3047 25.0274C13.3047 25.5053 13.4908 25.9545 13.8287 26.2924L15.6336 28.0973ZM14.5538 24.4875C14.7026 24.3386 14.8981 24.2642 15.0937 24.2642C15.2892 24.2642 15.4847 24.3387 15.6336 24.4875L16.536 25.39C16.6321 25.4861 16.7625 25.5401 16.8985 25.5401C17.0344 25.5401 17.1649 25.4861 17.261 25.39L19.3667 23.2842C19.6644 22.9865 20.1488 22.9865 20.4466 23.2842C20.7443 23.5819 20.7443 24.0663 20.4466 24.3641L17.4384 27.3722C17.2942 27.5165 17.1025 27.5958 16.8985 27.5958C16.6946 27.5958 16.5029 27.5164 16.3586 27.3722L14.5538 25.5674C14.256 25.2696 14.256 24.7852 14.5538 24.4875Z" fill="#F04E23"/>
</g>
</g>
</g>
<defs>
<clipPath id="clip0_261_2766">
<rect width="35" height="35" fill="white" transform="translate(0 0.5)"/>
</clipPath>
</defs>
</svg>
