<svg width="44" height="30" viewBox="0 0 44 30" fill="none" xmlns="http://www.w3.org/2000/svg">
<g id="Vector">
<path d="M11.0836 6.81818V3.78545C11.0836 3.40364 10.7782 3.09818 10.3855 3.09818C9.99273 3.09818 9.69818 3.40364 9.69818 3.78545V6.58909L8.28 8.53091C8.05091 8.83636 8.12727 9.27273 8.43273 9.50182C8.55273 9.58909 8.69455 9.63273 8.83636 9.63273C9.05455 9.63273 9.26182 9.53454 9.39273 9.34909L10.9418 7.23273C11.0291 7.11273 11.0727 6.97091 11.0727 6.82909L11.0836 6.81818Z" fill="#F04E23"/>
<path d="M43.5273 18.24L41.3236 14.8582C40.3527 13.3636 38.6945 12.4691 36.8945 12.4691H31.1782V9.18546C31.1782 7.17818 29.5418 5.54182 27.5345 5.54182H16.8436C16.92 5.95636 16.9636 6.38182 16.9636 6.81818C16.9636 6.86182 16.9636 6.89455 16.9636 6.93818H27.5345C28.7782 6.93818 29.7927 7.95273 29.7927 9.19636V22.1782H9.01091V19.4073H10.3964C10.7782 19.4073 11.0945 19.1018 11.0945 18.7091C11.0945 18.3164 10.7891 18.0109 10.3964 18.0109H9.01091V16.6255H13.8545C14.2364 16.6255 14.5418 16.32 14.5418 15.9382C14.5418 15.5564 14.2364 15.24 13.8545 15.24H9.01091V13.8545H18.0109C18.3927 13.8545 18.7091 13.5491 18.7091 13.1564C18.7091 12.7636 18.4036 12.4582 18.0109 12.4582H13.9418C12.8618 13.1782 11.5745 13.6036 10.1782 13.6036C8.78182 13.6036 7.49455 13.1782 6.41455 12.4582H0.698182C0.316364 12.4582 0 12.7636 0 13.1564C0 13.5491 0.305455 13.8545 0.698182 13.8545H7.62545V15.24H4.85455C4.47273 15.24 4.16727 15.5455 4.16727 15.9382C4.16727 16.3309 4.47273 16.6255 4.85455 16.6255H7.62545V18.0109H0.698182C0.316364 18.0109 0 18.3164 0 18.7091C0 19.1018 0.305455 19.4073 0.698182 19.4073H7.62545V22.4727C6.40364 23.0073 5.55273 24.2291 5.55273 25.6473V26.3345C5.55273 26.7164 5.85818 27.0327 6.25091 27.0327H12.3927C12.7855 28.7236 14.3018 30 16.1236 30C17.9455 30 19.4618 28.7345 19.8545 27.0327H33.1855C33.5782 28.7236 35.0945 30 36.9164 30C38.7382 30 40.2545 28.7345 40.6473 27.0327H42.9818C43.3636 27.0327 43.6691 26.7273 43.6691 26.3345V18.6218C43.6691 18.4909 43.6255 18.36 43.56 18.24H43.5273ZM12.3164 25.6364H6.92727C6.92727 24.4909 7.86546 23.5636 9.01091 23.5636H13.2982C12.7745 24.1309 12.4255 24.84 12.3164 25.6364ZM16.1018 28.6036C14.76 28.6036 13.6582 27.5127 13.6582 26.16C13.6582 24.8073 14.76 23.7164 16.1018 23.7164C17.4436 23.7164 18.5455 24.8182 18.5455 26.16C18.5455 27.5018 17.4545 28.6036 16.1018 28.6036ZM29.7818 25.6364H19.8873C19.7782 24.84 19.4291 24.12 18.9055 23.5636H29.7818V25.6364ZM36.8836 28.6036C35.5418 28.6036 34.44 27.5127 34.44 26.16C34.44 24.8073 35.5418 23.7164 36.8836 23.7164C38.2255 23.7164 39.3273 24.8182 39.3273 26.16C39.3273 27.5018 38.2364 28.6036 36.8836 28.6036ZM40.6691 25.6364C40.4182 23.7709 38.8145 22.3309 36.8836 22.3309C34.9527 22.3309 33.3491 23.7709 33.0982 25.6364H31.1782V13.8655H36.8945C38.2255 13.8655 39.4473 14.52 40.1673 15.6218L42.2618 18.8291V25.6364H40.6691Z" fill="#F8F1EF"/>
<path d="M16.5055 4.38545C16.5055 4.38545 16.5164 4.41818 16.5273 4.44C16.5273 4.41818 16.5164 4.40727 16.5055 4.38545Z" fill="#F8F1EF"/>
<path d="M15.9927 3.33818C15.9927 3.33818 16.0036 3.36 16.0145 3.37091C16.0145 3.36 16.0036 3.34909 15.9927 3.33818Z" fill="#F8F1EF"/>
<path d="M13.9418 12.4691C14.3782 12.1745 14.7818 11.8255 15.1418 11.4436C15.1527 11.4218 15.1745 11.4109 15.1855 11.3891C15.3491 11.2036 15.5018 11.0182 15.6545 10.8218C15.6545 10.8109 15.6764 10.7891 15.6873 10.7782C16.1455 10.1345 16.5055 9.41455 16.7127 8.62909C16.7127 8.59636 16.7236 8.56364 16.7345 8.53091C16.7891 8.30182 16.8436 8.07273 16.8764 7.83273C16.8764 7.78909 16.8873 7.75636 16.8982 7.71273C16.9309 7.45091 16.9527 7.18909 16.9636 6.91636C16.9636 6.87273 16.9636 6.84 16.9636 6.79636C16.9636 6.36 16.92 5.93455 16.8436 5.52C16.7673 5.13818 16.6582 4.76727 16.5273 4.41818C16.5273 4.39636 16.5164 4.38545 16.5055 4.36364C16.3745 4.01455 16.2109 3.67636 16.0145 3.34909C16.0145 3.33818 16.0036 3.32727 15.9927 3.31636C15.4145 2.34545 14.5855 1.52727 13.6145 0.949091C13.5927 0.938182 13.5709 0.927273 13.5491 0.905455C13.2436 0.730909 12.9164 0.578182 12.5891 0.447273C12.5455 0.425455 12.5018 0.414545 12.4582 0.403636C12.1309 0.283636 11.7818 0.185455 11.4327 0.12C11.3891 0.12 11.3455 0.109091 11.2909 0.0981818C10.9309 0.0327273 10.5491 0 10.1673 0C6.42545 0.0327273 3.38182 3.07636 3.38182 6.81818C3.38182 7.09091 3.40364 7.35273 3.43636 7.61455C3.43636 7.69091 3.45818 7.76727 3.46909 7.84364C3.50182 8.02909 3.53455 8.22546 3.57818 8.4C3.6 8.47636 3.61091 8.55273 3.63273 8.62909C3.68727 8.82545 3.75273 9.02182 3.82909 9.21818C3.85091 9.26182 3.86182 9.31636 3.88364 9.36C4.08 9.85091 4.34182 10.32 4.64727 10.7455C4.65818 10.7673 4.68 10.7891 4.70182 10.8109C4.84364 11.0073 4.99636 11.1818 5.14909 11.3673C5.17091 11.3891 5.19273 11.4109 5.21455 11.4436C5.57455 11.8364 5.97818 12.1855 6.42545 12.48C7.50545 13.2 8.79273 13.6255 10.1891 13.6255C11.5855 13.6255 12.8727 13.2 13.9527 12.48L13.9418 12.4691ZM4.76727 6.81818C4.76727 3.84 7.18909 1.41818 10.1673 1.41818C13.1455 1.41818 15.5673 3.84 15.5673 6.81818C15.5673 9.79636 13.1455 12.2182 10.1673 12.2182C7.18909 12.2182 4.76727 9.79636 4.76727 6.81818Z" fill="#F04E23"/>
</g>
</svg>
