<svg width="36" height="36" viewBox="0 0 36 36" fill="none" xmlns="http://www.w3.org/2000/svg">
<g id="Warranty">
<g id="Group">
<path id="Vector" d="M27.2907 13.4179L25.6935 11.8207C25.3577 11.4848 24.91 11.3298 24.4619 11.3612L23.5999 10.4992C23.4586 10.3579 23.2497 10.3087 23.0603 10.3718L21.4974 10.8927C21.1913 10.7419 20.8749 10.6107 20.5521 10.5008L19.8156 9.02784C19.7262 8.84918 19.5437 8.73633 19.344 8.73633H16.6559C16.4561 8.73633 16.2735 8.84918 16.1842 9.02784L15.4477 10.5008C15.125 10.6106 14.8085 10.7419 14.5024 10.8927L12.9396 10.3718C12.7501 10.3087 12.5411 10.3579 12.4 10.4992L10.4992 12.4C10.3579 12.5413 10.3087 12.7502 10.3718 12.9397L10.8927 14.5025C10.7419 14.8087 10.6107 15.1251 10.5008 15.4478L9.02784 16.1843C8.84918 16.2736 8.73633 16.4562 8.73633 16.656V19.3441C8.73633 19.5439 8.84918 19.7265 9.02784 19.8158L10.5008 20.5523C10.6106 20.875 10.7419 21.1915 10.8927 21.4976L10.3718 23.0604C10.3087 23.2499 10.3579 23.4588 10.4992 23.6L12.4 25.5008C12.5412 25.6421 12.7501 25.6913 12.9396 25.6282L14.5024 25.1073C14.8085 25.2581 15.125 25.3894 15.4478 25.4992L16.1843 26.9722C16.2737 27.1508 16.4562 27.2637 16.656 27.2637H19.344C19.5438 27.2637 19.7264 27.1508 19.8157 26.9722L20.5522 25.4992C20.8749 25.3894 21.1915 25.2581 21.4976 25.1073L23.0604 25.6282C23.2497 25.6912 23.4589 25.642 23.6 25.5008L25.5008 23.6C25.6421 23.4588 25.6913 23.2499 25.6282 23.0604L25.1073 21.4976C25.2581 21.1915 25.3893 20.875 25.4992 20.5523L26.9722 19.8158C27.1508 19.7264 27.2637 19.5439 27.2637 19.3441V16.656C27.2637 16.4562 27.1508 16.2736 26.9722 16.1843L26.8319 16.1142L27.2908 15.6553C27.9075 15.0383 27.9075 14.0347 27.2907 13.4179ZM26.2088 16.9819V19.0181L24.8298 19.7077C24.7009 19.7721 24.6041 19.8864 24.5617 20.0241C24.4361 20.4319 24.271 20.8301 24.071 21.2078C24.0036 21.3352 23.9912 21.4846 24.0367 21.6213L24.5245 23.0846L23.0846 24.5245L21.6213 24.0367C21.4845 23.9911 21.3351 24.0035 21.2077 24.0709C20.8301 24.271 20.4318 24.4361 20.024 24.5617C19.8863 24.6041 19.7721 24.701 19.7076 24.8298L19.0181 26.2088H16.9818L16.2923 24.8298C16.2278 24.7009 16.1135 24.6041 15.9758 24.5617C15.568 24.4361 15.1698 24.271 14.7921 24.0709C14.6647 24.0034 14.5152 23.991 14.3786 24.0367L12.9152 24.5245L11.4754 23.0846L11.9631 21.6213C12.0087 21.4845 11.9963 21.3351 11.9289 21.2078C11.7289 20.8301 11.5637 20.4318 11.4382 20.0241C11.3958 19.8864 11.2989 19.7722 11.1701 19.7077L9.79102 19.0181V16.9819L11.1701 16.2923C11.2989 16.2279 11.3958 16.1136 11.4382 15.9759C11.5638 15.5682 11.7289 15.1699 11.9289 14.7922C11.9963 14.6648 12.0087 14.5154 11.9631 14.3787L11.4754 12.9154L12.9152 11.4754L14.3786 11.9632C14.5152 12.0087 14.6647 11.9965 14.7921 11.929C15.1698 11.729 15.568 11.5639 15.9758 11.4383C16.1134 11.3959 16.2277 11.299 16.2922 11.1702L16.9817 9.79116H19.018L19.7075 11.1702C19.7719 11.2991 19.8863 11.3959 20.0239 11.4383C20.4318 11.5639 20.83 11.729 21.2077 11.929C21.3351 11.9964 21.4845 12.0088 21.6212 11.9632L23.0845 11.4754L23.443 11.8339L20.3638 14.9131C19.6887 14.3937 18.8664 14.1126 17.9999 14.1126C17.203 14.1126 16.4467 14.348 15.7982 14.7956C15.3454 14.7536 14.8778 14.9055 14.5318 15.2514L12.9346 16.8486C12.3178 17.4655 12.3178 18.4691 12.9346 19.086L13.486 19.6373C13.692 19.8433 14.0258 19.8432 14.2318 19.6373C14.4378 19.4314 14.4377 19.0974 14.2318 18.8916L13.6804 18.3402C13.4748 18.1346 13.4748 17.8 13.6804 17.5944L15.2776 15.9972C15.4833 15.7916 15.8179 15.7916 16.0234 15.9972L18.0245 17.9982C18.2304 18.2042 18.5643 18.2042 18.7702 17.9982L24.2019 12.5665C24.4076 12.3609 24.7411 12.36 24.9476 12.5665L26.5449 14.1638C26.7505 14.3693 26.7505 14.704 26.5449 14.9096L19.7645 21.6899C19.3993 22.0551 18.9137 22.2563 18.3973 22.2563C17.8808 22.2563 17.3952 22.0551 17.03 21.6899L15.9694 20.6293C15.7634 20.4234 15.4295 20.4234 15.2236 20.6293C15.0177 20.8353 15.0177 21.1692 15.2236 21.3751L16.2842 22.4357C16.8486 23.0001 17.5991 23.3109 18.3973 23.3109C19.1955 23.3109 19.9459 23.0001 20.5103 22.4357L26.0456 16.9004L26.2088 16.9819ZM19.6091 15.6677L18.3973 16.8795L16.9039 15.3861C17.247 15.2418 17.6169 15.1673 17.9999 15.1673C18.5836 15.1672 19.1398 15.3423 19.6091 15.6677Z" fill="#F04E23"/>
<path id="Vector_2" d="M31.1411 5.46019H29.9667C27.7122 5.46019 25.7549 3.85559 25.3128 1.64482L25.2381 1.27174C25.0908 0.534867 24.4384 0 23.6869 0H12.3116C11.5601 0 10.9077 0.534867 10.7603 1.27174L10.6856 1.64489C10.2435 3.85559 8.28621 5.46019 6.03171 5.46019H4.85742C3.98505 5.46019 3.27539 6.16985 3.27539 7.04222V7.56014C3.27539 7.85138 3.5115 8.08748 3.80273 8.08748C4.09397 8.08748 4.33008 7.85138 4.33008 7.56014V7.04222C4.33008 6.75141 4.56661 6.51487 4.85742 6.51487H6.03178C8.78733 6.51487 11.1795 4.55372 11.7199 1.85175L11.7946 1.4786C11.8437 1.23293 12.0612 1.05469 12.3117 1.05469H23.6869C23.9374 1.05469 24.1548 1.233 24.204 1.4786L24.2786 1.85168C24.8191 4.55372 27.2112 6.51487 29.9668 6.51487H31.1411C31.432 6.51487 31.6685 6.75141 31.6685 7.04222V16.2791C31.6685 23.2087 27.8783 29.5542 21.7771 32.8395L17.9993 34.8737L14.2215 32.8395C8.12027 29.5542 4.33008 23.2087 4.33008 16.2791V10.0211C4.33008 9.72984 4.09397 9.49373 3.80273 9.49373C3.5115 9.49373 3.27539 9.72984 3.27539 10.0211V16.2791C3.27539 23.5972 7.27814 30.2986 13.7215 33.7681L17.7493 35.9369C17.9054 36.021 18.0933 36.021 18.2493 35.9369L22.2771 33.7681C28.7204 30.2986 32.7232 23.5972 32.7232 16.2791V7.04222C32.7231 6.16992 32.0134 5.46019 31.1411 5.46019Z" fill="#F8F1EF"/>
<path id="Vector_3" d="M30.0113 13.386C30.3025 13.386 30.5386 13.1499 30.5386 12.8586V8.17161C30.5386 7.88038 30.3025 7.64427 30.0113 7.64427H29.9663C26.866 7.64427 24.1203 5.55768 23.2892 2.5701C23.2258 2.34193 23.0181 2.18408 22.7812 2.18408H13.2164C12.9795 2.18408 12.7718 2.34193 12.7083 2.5701C11.8773 5.55768 9.13162 7.64427 6.03133 7.64427H5.98633C5.69509 7.64427 5.45898 7.88038 5.45898 8.17161V16.2791C5.45898 22.7926 9.02158 28.7571 14.7565 31.8451L17.7488 33.4564C17.9049 33.5404 18.0927 33.5404 18.2488 33.4564L21.241 31.8451C26.9759 28.7571 30.5385 22.7925 30.5385 16.2791V15.3196C30.5385 15.0283 30.3024 14.7922 30.0112 14.7922C29.72 14.7922 29.4839 15.0283 29.4839 15.3196V16.2791C29.4839 22.404 26.1338 28.0127 20.7411 30.9165L17.9988 32.3932L15.2565 30.9166C9.86371 28.0127 6.51367 22.4041 6.51367 16.2791V8.68433C9.75156 8.48725 12.5778 6.32099 13.6064 3.23877H22.3911C23.4197 6.32099 26.246 8.48725 29.4839 8.68433V12.8586C29.4839 13.15 29.72 13.386 30.0113 13.386Z" fill="#F8F1EF"/>
</g>
</g>
</svg>
